<?xml version="1.0" encoding="UTF-8"?>
<svg width="24" height="24" viewBox="0 0 24 24" fill="none" xmlns="http://www.w3.org/2000/svg">
  <path d="M9.5 2A2.5 2.5 0 0 1 12 4.5v15a2.5 2.5 0 0 1-5 0v-15A2.5 2.5 0 0 1 9.5 2Z" stroke="currentColor" stroke-width="2" stroke-linecap="round" stroke-linejoin="round"/>
  <path d="M14.5 2A2.5 2.5 0 0 0 12 4.5v15a2.5 2.5 0 0 0 5 0v-15A2.5 2.5 0 0 0 14.5 2Z" stroke="currentColor" stroke-width="2" stroke-linecap="round" stroke-linejoin="round"/>
  <path d="M9.5 2A2.5 2.5 0 0 0 7 4.5v15a2.5 2.5 0 0 0 5 0v-15A2.5 2.5 0 0 0 9.5 2Z" stroke="currentColor" stroke-width="2" stroke-linecap="round" stroke-linejoin="round"/>
  <path d="M14.5 2A2.5 2.5 0 0 1 17 4.5v15a2.5 2.5 0 0 1-5 0v-15A2.5 2.5 0 0 1 14.5 2Z" stroke="currentColor" stroke-width="2" stroke-linecap="round" stroke-linejoin="round"/>
</svg> 